<mxfile host="app.diagrams.net" modified="2020-09-30T08:19:16.825Z" agent="5.0 (Macintosh; Intel Mac OS X 10_14_5) AppleWebKit/537.36 (KHTML, like Gecko) Chrome/85.0.4183.121 Safari/537.36" etag="xuuMI6073D2MMYAA1fy2" version="13.7.6" type="github">
  <diagram id="lnrqaQ34fG8TvafngoyJ" name="Page-1">
    <mxGraphModel dx="1426" dy="825" grid="1" gridSize="10" guides="1" tooltips="1" connect="1" arrows="1" fold="1" page="1" pageScale="1" pageWidth="827" pageHeight="1169" math="0" shadow="0">
      <root>
        <mxCell id="0" />
        <mxCell id="1" parent="0" />
        <mxCell id="NIoaJKaVrZVFkmfnVety-15" value="profile-manage-service" style="shape=umlFrame;whiteSpace=wrap;html=1;width=150;height=20;" vertex="1" parent="1">
          <mxGeometry x="120" y="250" width="400" height="350" as="geometry" />
        </mxCell>
        <mxCell id="NIoaJKaVrZVFkmfnVety-16" value="" style="shape=umlLifeline;participant=umlActor;perimeter=lifelinePerimeter;whiteSpace=wrap;html=1;container=1;collapsible=0;recursiveResize=0;verticalAlign=top;spacingTop=36;outlineConnect=0;" vertex="1" parent="1">
          <mxGeometry x="60" y="240" width="20" height="360" as="geometry" />
        </mxCell>
        <mxCell id="NIoaJKaVrZVFkmfnVety-17" value="GdConfigController" style="shape=umlLifeline;perimeter=lifelinePerimeter;whiteSpace=wrap;html=1;container=1;collapsible=0;recursiveResize=0;outlineConnect=0;" vertex="1" parent="1">
          <mxGeometry x="140" y="280" width="120" height="320" as="geometry" />
        </mxCell>
        <mxCell id="NIoaJKaVrZVFkmfnVety-38" value="" style="html=1;points=[];perimeter=orthogonalPerimeter;" vertex="1" parent="NIoaJKaVrZVFkmfnVety-17">
          <mxGeometry x="55" y="70" width="10" height="20" as="geometry" />
        </mxCell>
        <mxCell id="NIoaJKaVrZVFkmfnVety-46" value="" style="html=1;points=[];perimeter=orthogonalPerimeter;" vertex="1" parent="NIoaJKaVrZVFkmfnVety-17">
          <mxGeometry x="55" y="270" width="10" height="30" as="geometry" />
        </mxCell>
        <mxCell id="NIoaJKaVrZVFkmfnVety-21" value="add gd config" style="html=1;verticalAlign=bottom;endArrow=block;" edge="1" parent="1" source="NIoaJKaVrZVFkmfnVety-16">
          <mxGeometry width="80" relative="1" as="geometry">
            <mxPoint x="49.5" y="350" as="sourcePoint" />
            <mxPoint x="199.5" y="350" as="targetPoint" />
            <Array as="points">
              <mxPoint x="80" y="350" />
            </Array>
          </mxGeometry>
        </mxCell>
        <mxCell id="NIoaJKaVrZVFkmfnVety-24" value="GdConfigService" style="shape=umlLifeline;perimeter=lifelinePerimeter;whiteSpace=wrap;html=1;container=1;collapsible=0;recursiveResize=0;outlineConnect=0;" vertex="1" parent="1">
          <mxGeometry x="280" y="280" width="110" height="320" as="geometry" />
        </mxCell>
        <mxCell id="NIoaJKaVrZVFkmfnVety-42" value="" style="html=1;points=[];perimeter=orthogonalPerimeter;" vertex="1" parent="NIoaJKaVrZVFkmfnVety-24">
          <mxGeometry x="50" y="180" width="10" height="30" as="geometry" />
        </mxCell>
        <mxCell id="NIoaJKaVrZVFkmfnVety-43" value="" style="html=1;points=[];perimeter=orthogonalPerimeter;" vertex="1" parent="NIoaJKaVrZVFkmfnVety-24">
          <mxGeometry x="50" y="240" width="10" height="30" as="geometry" />
        </mxCell>
        <mxCell id="NIoaJKaVrZVFkmfnVety-25" value="Data Driver" style="shape=umlLifeline;perimeter=lifelinePerimeter;whiteSpace=wrap;html=1;container=1;collapsible=0;recursiveResize=0;outlineConnect=0;" vertex="1" parent="1">
          <mxGeometry x="413.5" y="280" width="76" height="320" as="geometry" />
        </mxCell>
        <mxCell id="NIoaJKaVrZVFkmfnVety-41" value="" style="html=1;points=[];perimeter=orthogonalPerimeter;" vertex="1" parent="NIoaJKaVrZVFkmfnVety-25">
          <mxGeometry x="33" y="160" width="10" height="20" as="geometry" />
        </mxCell>
        <mxCell id="NIoaJKaVrZVFkmfnVety-27" value="add config" style="html=1;verticalAlign=bottom;endArrow=block;" edge="1" parent="1">
          <mxGeometry width="80" relative="1" as="geometry">
            <mxPoint x="199.5" y="370" as="sourcePoint" />
            <mxPoint x="334.5" y="370" as="targetPoint" />
            <Array as="points">
              <mxPoint x="260" y="370" />
            </Array>
          </mxGeometry>
        </mxCell>
        <mxCell id="NIoaJKaVrZVFkmfnVety-28" value="add" style="html=1;verticalAlign=bottom;endArrow=block;" edge="1" parent="1">
          <mxGeometry width="80" relative="1" as="geometry">
            <mxPoint x="334.5" y="390" as="sourcePoint" />
            <mxPoint x="451" y="390" as="targetPoint" />
            <Array as="points">
              <mxPoint x="390" y="390" />
            </Array>
          </mxGeometry>
        </mxCell>
        <mxCell id="NIoaJKaVrZVFkmfnVety-29" value="MySQL" style="shape=umlLifeline;perimeter=lifelinePerimeter;whiteSpace=wrap;html=1;container=1;collapsible=0;recursiveResize=0;outlineConnect=0;" vertex="1" parent="1">
          <mxGeometry x="570" y="280" width="76" height="320" as="geometry" />
        </mxCell>
        <mxCell id="NIoaJKaVrZVFkmfnVety-30" value="insert" style="html=1;verticalAlign=bottom;endArrow=block;" edge="1" parent="1" target="NIoaJKaVrZVFkmfnVety-29">
          <mxGeometry width="80" relative="1" as="geometry">
            <mxPoint x="451" y="410" as="sourcePoint" />
            <mxPoint x="717.5" y="410" as="targetPoint" />
            <Array as="points">
              <mxPoint x="580" y="410" />
            </Array>
          </mxGeometry>
        </mxCell>
        <mxCell id="NIoaJKaVrZVFkmfnVety-31" value="return ok" style="html=1;verticalAlign=bottom;endArrow=open;endSize=8;" edge="1" parent="1" source="NIoaJKaVrZVFkmfnVety-29">
          <mxGeometry relative="1" as="geometry">
            <mxPoint x="717.5" y="440" as="sourcePoint" />
            <mxPoint x="451" y="440" as="targetPoint" />
          </mxGeometry>
        </mxCell>
        <mxCell id="NIoaJKaVrZVFkmfnVety-32" value="return" style="html=1;verticalAlign=bottom;endArrow=open;endSize=8;" edge="1" parent="1">
          <mxGeometry relative="1" as="geometry">
            <mxPoint x="451" y="460" as="sourcePoint" />
            <mxPoint x="334.5" y="460" as="targetPoint" />
            <Array as="points">
              <mxPoint x="390" y="460" />
            </Array>
          </mxGeometry>
        </mxCell>
        <mxCell id="NIoaJKaVrZVFkmfnVety-33" value="gd-service&lt;br&gt;或 spark-profile-job&lt;br&gt;或 profile-process" style="shape=umlLifeline;perimeter=lifelinePerimeter;whiteSpace=wrap;html=1;container=1;collapsible=0;recursiveResize=0;outlineConnect=0;" vertex="1" parent="1">
          <mxGeometry x="670" y="280" width="110" height="320" as="geometry" />
        </mxCell>
        <mxCell id="NIoaJKaVrZVFkmfnVety-34" value="broad cast" style="html=1;verticalAlign=bottom;endArrow=block;" edge="1" parent="1" target="NIoaJKaVrZVFkmfnVety-33">
          <mxGeometry width="80" relative="1" as="geometry">
            <mxPoint x="334.5" y="490" as="sourcePoint" />
            <mxPoint x="817.5" y="490" as="targetPoint" />
            <Array as="points">
              <mxPoint x="590" y="490" />
            </Array>
          </mxGeometry>
        </mxCell>
        <mxCell id="NIoaJKaVrZVFkmfnVety-35" value="return ok" style="html=1;verticalAlign=bottom;endArrow=open;endSize=8;" edge="1" parent="1" source="NIoaJKaVrZVFkmfnVety-33">
          <mxGeometry relative="1" as="geometry">
            <mxPoint x="817.5" y="520" as="sourcePoint" />
            <mxPoint x="334.5" y="520" as="targetPoint" />
            <Array as="points">
              <mxPoint x="580" y="520" />
            </Array>
          </mxGeometry>
        </mxCell>
        <mxCell id="NIoaJKaVrZVFkmfnVety-36" value="return ok" style="html=1;verticalAlign=bottom;endArrow=open;endSize=8;" edge="1" parent="1">
          <mxGeometry relative="1" as="geometry">
            <mxPoint x="334.5" y="550" as="sourcePoint" />
            <mxPoint x="199.5" y="550" as="targetPoint" />
            <Array as="points">
              <mxPoint x="260" y="550" />
            </Array>
          </mxGeometry>
        </mxCell>
        <mxCell id="NIoaJKaVrZVFkmfnVety-37" value="return ok" style="html=1;verticalAlign=bottom;endArrow=open;endSize=8;exitX=0.5;exitY=0.833;exitDx=0;exitDy=0;exitPerimeter=0;" edge="1" parent="1" target="NIoaJKaVrZVFkmfnVety-16">
          <mxGeometry relative="1" as="geometry">
            <mxPoint x="200" y="579.9000000000001" as="sourcePoint" />
            <mxPoint x="70" y="580" as="targetPoint" />
            <Array as="points">
              <mxPoint x="120.5" y="580" />
            </Array>
          </mxGeometry>
        </mxCell>
        <mxCell id="NIoaJKaVrZVFkmfnVety-39" value="" style="html=1;points=[];perimeter=orthogonalPerimeter;" vertex="1" parent="1">
          <mxGeometry x="330" y="370" width="10" height="20" as="geometry" />
        </mxCell>
        <mxCell id="NIoaJKaVrZVFkmfnVety-40" value="" style="html=1;points=[];perimeter=orthogonalPerimeter;" vertex="1" parent="1">
          <mxGeometry x="446.5" y="390" width="10" height="20" as="geometry" />
        </mxCell>
        <mxCell id="NIoaJKaVrZVFkmfnVety-44" value="" style="html=1;points=[];perimeter=orthogonalPerimeter;" vertex="1" parent="1">
          <mxGeometry x="603" y="410" width="10" height="30" as="geometry" />
        </mxCell>
        <mxCell id="NIoaJKaVrZVFkmfnVety-45" value="" style="html=1;points=[];perimeter=orthogonalPerimeter;" vertex="1" parent="1">
          <mxGeometry x="720" y="490" width="10" height="30" as="geometry" />
        </mxCell>
      </root>
    </mxGraphModel>
  </diagram>
</mxfile>
